<svg width="22" height="26" viewBox="0 0 22 26" fill="none" xmlns="http://www.w3.org/2000/svg">
<path d="M11 19.5847L12.5633 22.2924C13.2581 23.4958 12.3896 25 11 25C9.61046 25 8.74199 23.4958 9.43677 22.2924L11 19.5847Z" stroke="white" stroke-linejoin="round"/>
<path d="M6.52094 14.9538L8.08419 17.6614C8.77897 18.8648 7.9105 20.369 6.52094 20.369C5.13138 20.369 4.26291 18.8648 4.95769 17.6614L6.52094 14.9538Z" stroke="white" stroke-linejoin="round"/>
<path d="M15.4791 14.1696L17.0424 16.8772C17.7371 18.0806 16.8687 19.5848 15.4791 19.5848C14.0895 19.5848 13.2211 18.0806 13.9159 16.8772L15.4791 14.1696Z" stroke="white" stroke-linejoin="round"/>
<path d="M1.39508 8.23513C1.39508 10.2331 3.01472 11.8527 5.01264 11.8527H16.9874C18.9853 11.8527 20.605 10.2331 20.605 8.23513C20.605 6.44953 19.3113 4.96609 17.6101 4.67095C17.3924 2.88114 15.8677 1.49462 14.0192 1.49462C13.0959 1.49462 12.2534 1.84049 11.6142 2.40974C10.9527 1.55231 9.91498 1 8.74827 1C6.75034 1 5.1307 2.61964 5.1307 4.61756C3.11673 4.61756 1.39508 6.17095 1.39508 8.23513Z" stroke="white" stroke-linejoin="round"/>
</svg>
