<svg width="22" height="26" viewBox="0 0 22 26" fill="none" xmlns="http://www.w3.org/2000/svg">
<path d="M4.86655 4.78035V5.28035C5.1427 5.28035 5.36655 5.0565 5.36655 4.78035H4.86655ZM11.6418 2.47317L11.2459 2.7786C11.3307 2.88843 11.4572 2.95812 11.5953 2.97101C11.7335 2.9839 11.8707 2.93883 11.9743 2.84657L11.6418 2.47317ZM17.9075 4.83614L17.4112 4.8965C17.4378 5.11545 17.6047 5.29108 17.822 5.32878L17.9075 4.83614ZM4.74318 11.8411C2.93149 11.8411 1.46283 10.3724 1.46283 8.56071H0.46283C0.46283 10.9247 2.37921 12.8411 4.74318 12.8411V11.8411ZM5.36655 4.78035C5.36655 2.96866 6.83522 1.5 8.64691 1.5V0.5C6.28293 0.5 4.36655 2.41638 4.36655 4.78035H5.36655ZM20.5371 8.56071C20.5371 10.3724 19.0685 11.8411 17.2568 11.8411V12.8411C19.6208 12.8411 21.5371 10.9247 21.5371 8.56071H20.5371ZM4.74318 12.8411H17.2568V11.8411H4.74318V12.8411ZM11.9743 2.84657C12.5543 2.3301 13.3174 2.01688 14.155 2.01688V1.01688C13.0629 1.01688 12.0653 1.42653 11.3093 2.09978L11.9743 2.84657ZM8.64691 1.5C9.70458 1.5 10.6452 2.00001 11.2459 2.7786L12.0377 2.16775C11.2558 1.15432 10.0277 0.5 8.64691 0.5V1.5ZM17.822 5.32878C19.3643 5.59635 20.5371 6.94207 20.5371 8.56071H21.5371C21.5371 6.44745 20.0062 4.69278 17.993 4.3435L17.822 5.32878ZM14.155 2.01688C15.8309 2.01688 17.2139 3.27405 17.4112 4.8965L18.4038 4.77579C18.1463 2.65754 16.3426 1.01688 14.155 1.01688V2.01688ZM1.46283 8.56071C1.46283 6.70483 3.01236 5.28035 4.86655 5.28035V4.28035C2.51154 4.28035 0.46283 6.10245 0.46283 8.56071H1.46283ZM8.04789 15.6495C8.04789 15.912 7.83504 16.1249 7.57249 16.1249V17.1249C8.38733 17.1249 9.04789 16.4643 9.04789 15.6495H8.04789ZM7.57249 16.1249C7.30993 16.1249 7.09709 15.912 7.09709 15.6495H6.09709C6.09709 16.4643 6.75765 17.1249 7.57249 17.1249V16.1249ZM7.09709 15.6495C7.09709 15.3869 7.30993 15.1741 7.57249 15.1741V14.1741C6.75765 14.1741 6.09709 14.8346 6.09709 15.6495H7.09709ZM7.57249 15.1741C7.83504 15.1741 8.04789 15.3869 8.04789 15.6495H9.04789C9.04789 14.8346 8.38733 14.1741 7.57249 14.1741V15.1741ZM12.2079 19.5269C12.2079 19.7894 11.9951 20.0023 11.7325 20.0023V21.0023C12.5474 21.0023 13.2079 20.3417 13.2079 19.5269H12.2079ZM11.7325 20.0023C11.47 20.0023 11.2571 19.7894 11.2571 19.5269H10.2571C10.2571 20.3417 10.9177 21.0023 11.7325 21.0023V20.0023ZM11.2571 19.5269C11.2571 19.2643 11.47 19.0515 11.7325 19.0515V18.0515C10.9177 18.0515 10.2571 18.712 10.2571 19.5269H11.2571ZM11.7325 19.0515C11.9951 19.0515 12.2079 19.2643 12.2079 19.5269H13.2079C13.2079 18.712 12.5474 18.0515 11.7325 18.0515V19.0515ZM16.0239 15.6495C16.0239 15.912 15.8111 16.1249 15.5485 16.1249V17.1249C16.3633 17.1249 17.0239 16.4643 17.0239 15.6495H16.0239ZM15.5485 16.1249C15.286 16.1249 15.0731 15.912 15.0731 15.6495H14.0731C14.0731 16.4643 14.7337 17.1249 15.5485 17.1249V16.1249ZM15.0731 15.6495C15.0731 15.3869 15.286 15.1741 15.5485 15.1741V14.1741C14.7337 14.1741 14.0731 14.8346 14.0731 15.6495H15.0731ZM15.5485 15.1741C15.8111 15.1741 16.0239 15.3869 16.0239 15.6495H17.0239C17.0239 14.8346 16.3633 14.1741 15.5485 14.1741V15.1741ZM18.6976 19.5269C18.6976 19.7894 18.4848 20.0023 18.2222 20.0023V21.0023C19.0371 21.0023 19.6976 20.3417 19.6976 19.5269H18.6976ZM18.2222 20.0023C17.9597 20.0023 17.7468 19.7894 17.7468 19.5269H16.7468C16.7468 20.3417 17.4074 21.0023 18.2222 21.0023V20.0023ZM17.7468 19.5269C17.7468 19.2643 17.9597 19.0515 18.2222 19.0515V18.0515C17.4074 18.0515 16.7468 18.712 16.7468 19.5269H17.7468ZM18.2222 19.0515C18.4848 19.0515 18.6976 19.2643 18.6976 19.5269H19.6976C19.6976 18.712 19.0371 18.0515 18.2222 18.0515V19.0515ZM5.7182 19.5269C5.7182 19.7894 5.50536 20.0023 5.2428 20.0023V21.0023C6.05764 21.0023 6.7182 20.3417 6.7182 19.5269H5.7182ZM5.2428 20.0023C4.98025 20.0023 4.7674 19.7894 4.7674 19.5269H3.7674C3.7674 20.3417 4.42796 21.0023 5.2428 21.0023V20.0023ZM4.7674 19.5269C4.7674 19.2643 4.98025 19.0515 5.2428 19.0515V18.0515C4.42796 18.0515 3.7674 18.712 3.7674 19.5269H4.7674ZM5.2428 19.0515C5.50536 19.0515 5.7182 19.2643 5.7182 19.5269H6.7182C6.7182 18.712 6.05764 18.0515 5.2428 18.0515V19.0515ZM8.16115 23.7513C8.16115 24.0138 7.94831 24.2267 7.68575 24.2267V25.2267C8.5006 25.2267 9.16115 24.5661 9.16115 23.7513H8.16115ZM7.68575 24.2267C7.4232 24.2267 7.21036 24.0138 7.21036 23.7513H6.21036C6.21036 24.5661 6.87091 25.2267 7.68575 25.2267V24.2267ZM7.21036 23.7513C7.21036 23.4887 7.4232 23.2759 7.68575 23.2759V22.2759C6.87091 22.2759 6.21036 22.9364 6.21036 23.7513H7.21036ZM7.68575 23.2759C7.94831 23.2759 8.16115 23.4887 8.16115 23.7513H9.16115C9.16115 22.9364 8.5006 22.2759 7.68575 22.2759V23.2759ZM15.8346 24.0246C15.8346 24.2872 15.6218 24.5 15.3592 24.5V25.5C16.174 25.5 16.8346 24.8394 16.8346 24.0246H15.8346ZM15.3592 24.5C15.0966 24.5 14.8838 24.2872 14.8838 24.0246H13.8838C13.8838 24.8394 14.5444 25.5 15.3592 25.5V24.5ZM14.8838 24.0246C14.8838 23.762 15.0966 23.5492 15.3592 23.5492V22.5492C14.5444 22.5492 13.8838 23.2098 13.8838 24.0246H14.8838ZM15.3592 23.5492C15.6218 23.5492 15.8346 23.762 15.8346 24.0246H16.8346C16.8346 23.2098 16.174 22.5492 15.3592 22.5492V23.5492Z" fill="white"/>
</svg>
