<svg width="24" height="26" viewBox="0 0 24 26" fill="none" xmlns="http://www.w3.org/2000/svg">
<path d="M7.19639 6.38858L4.94638 3.29171M4.22775 10.4747L0.587158 9.29179M4.22775 15.5253L0.587158 16.7082M7.19639 19.6114L4.94638 22.7083M12 21.1721V25M16.8036 19.6114L19.0536 22.7083M19.7723 15.5253L23.4129 16.7082M19.7723 10.4747L23.4129 9.29179M16.8036 6.38858L19.0536 3.29171M12 4.82795V1M17.5655 13C17.5655 16.0737 15.0737 18.5655 12 18.5655C8.92629 18.5655 6.43455 16.0737 6.43455 13C6.43455 9.92628 8.92629 7.43455 12 7.43455C15.0737 7.43455 17.5655 9.92628 17.5655 13Z" stroke="white" stroke-linecap="round"/>
</svg>
