<svg width="32" height="32" viewBox="0 0 32 32" fill="none" xmlns="http://www.w3.org/2000/svg">
<path d="M15.1347 15.8887H22.0555M15.9998 17.6189H22.0555M15.9998 19.3491H21.1904M15.7962 21.0793H20.1217M15.1347 22.8094H18.5951M14.066 24.5396H16.6613M14.6004 26.2698H16.3306M16.3306 28H17.1957M11.4568 15.5579L10.4992 17.9517H12.8174L11.4568 21.6559M10.6017 13.785C8.80032 13.785 7.34003 12.3247 7.34003 10.5233C7.34003 8.66221 8.89229 7.26165 10.7081 7.26165C10.7081 5.46029 12.1684 4 13.9698 4C15.0217 4 15.9573 4.49797 16.5537 5.27104C17.1301 4.7578 17.8896 4.44596 18.7221 4.44596C20.3888 4.44596 21.7635 5.69607 21.9597 7.30979C23.4935 7.57589 24.6599 8.91338 24.6599 10.5233C24.6599 12.3247 23.1997 13.785 21.3983 13.785H10.6017Z" stroke="white" stroke-linecap="round"/>
</svg>
