<svg width="32" height="32" viewBox="0 0 32 32" fill="none" xmlns="http://www.w3.org/2000/svg">
<path d="M21.8294 22.7869H10.8622M21.8294 20.6999H11.7335C10.8701 20.6999 10.1701 20 10.1701 19.1366C10.1701 18.2732 10.8701 17.5732 11.7335 17.5732C12.3269 17.5732 12.843 17.9039 13.1079 18.3909M21.8294 24.8733H16.9445C16.0811 24.8733 15.3812 25.5733 15.3812 26.4367C15.3812 27.3001 16.0811 28 16.9445 28C17.5379 28 18.0541 27.6694 18.3189 27.1823M9.75985 15.3109C7.67758 15.3109 5.98956 13.6228 5.98956 11.5406C5.98956 9.38925 7.78389 7.77029 9.88289 7.77029C9.88289 5.68802 11.5709 4 13.6532 4C14.8691 4 15.9507 4.57563 16.6401 5.46925C17.3063 4.87598 18.1843 4.5155 19.1466 4.5155C21.0732 4.5155 22.6623 5.96056 22.8891 7.82593C24.6621 8.13353 26.0104 9.6796 26.0104 11.5406C26.0104 13.6228 24.3224 15.3109 22.2401 15.3109H9.75985Z" stroke="white" stroke-linecap="round"/>
</svg>
