<svg width="26" height="24" viewBox="0 0 26 24" fill="none" xmlns="http://www.w3.org/2000/svg">
<path d="M10.6775 19.0113C11.9338 20.516 13.5866 21.6782 15.4753 22.3375C14.3453 22.732 13.1309 22.9464 11.8664 22.9464C5.82085 22.9464 0.919983 18.0455 0.919983 12C0.919983 5.95446 5.82085 1.05359 11.8664 1.05359C13.1309 1.05359 14.3453 1.268 15.4753 1.66244C11.2029 3.15382 8.13776 7.21895 8.13776 12C8.13776 12.0217 8.13782 12.0434 8.13795 12.0651M10.6775 19.0113H9.48774C7.48982 19.0113 5.87018 17.3916 5.87018 15.3937C5.87018 13.8589 6.82193 12.6066 8.13795 12.0651M10.6775 19.0113H21.4625C23.4604 19.0113 25.0801 17.3916 25.0801 15.3937C25.0801 13.6081 23.7864 12.1247 22.0852 11.8295C21.8675 10.0397 20.3428 8.65319 18.4943 8.65319C17.571 8.65319 16.7285 8.99906 16.0893 9.56831C15.4278 8.71088 14.3901 8.15857 13.2234 8.15857C11.2254 8.15857 9.6058 9.77821 9.6058 11.7761C9.08925 11.7761 8.59193 11.8783 8.13795 12.0651" stroke="white" stroke-linejoin="round"/>
</svg>
