<svg width="26" height="24" viewBox="0 0 26 24" fill="none" xmlns="http://www.w3.org/2000/svg">
<path d="M1 12C1 18.0455 5.90087 22.9464 11.9464 22.9464C13.2109 22.9464 14.4253 22.732 15.5553 22.3375C11.2829 20.8461 8.21778 16.781 8.21778 12C8.21778 7.21895 11.2829 3.15382 15.5553 1.66244C14.4253 1.268 13.2109 1.05359 11.9464 1.05359C5.90087 1.05359 1 5.95446 1 12Z" stroke="white" stroke-linejoin="round"/>
<path d="M17.7752 12.3062L18.6333 14.9474H21.4104L19.1637 16.5797L20.0218 19.2208L17.7752 17.5885L15.5285 19.2208L16.3866 16.5797L14.14 14.9474H16.917L17.7752 12.3062Z" stroke="white" stroke-linejoin="round"/>
<path d="M22.9223 8.42584L23.4128 9.93536H25L23.7159 10.8683L24.2064 12.3778L22.9223 11.4449L21.6382 12.3778L22.1287 10.8683L20.8446 9.93536H22.4318L22.9223 8.42584Z" stroke="white" stroke-linejoin="round"/>
<path d="M15.5554 6.06766L16.1537 7.90883H18.0896L16.5234 9.04674L17.1216 10.8879L15.5554 9.75001L13.9892 10.8879L14.5875 9.04674L13.0213 7.90883H14.9572L15.5554 6.06766Z" stroke="white" stroke-linejoin="round"/>
</svg>
