<svg width="20" height="26" viewBox="0 0 20 26" fill="none" xmlns="http://www.w3.org/2000/svg">
<path d="M9 19.5847L9.43737 19.3424C9.34927 19.1834 9.1818 19.0847 9 19.0847C8.8182 19.0847 8.65073 19.1834 8.56263 19.3424L9 19.5847ZM7.5 22.2924L7.93737 22.5347L7.5 22.2924ZM10.5 22.2924L10.0626 22.5347L10.5 22.2924ZM4.70215 14.9538L5.13952 14.7115C5.05142 14.5524 4.88395 14.4538 4.70215 14.4538C4.52035 14.4538 4.35288 14.5524 4.26478 14.7115L4.70215 14.9538ZM3.20215 17.6614L3.63952 17.9037L3.20215 17.6614ZM6.20215 17.6614L6.63952 17.4191L6.20215 17.6614ZM4.36816 4.61756V5.11756C4.64431 5.11756 4.86816 4.89371 4.86816 4.61756H4.36816ZM10.5893 2.40974L10.1875 2.70723C10.2721 2.82156 10.4014 2.89442 10.543 2.90759C10.6847 2.92076 10.8252 2.87298 10.9295 2.77622L10.5893 2.40974ZM16.3426 4.67095L15.846 4.7289C15.8715 4.94756 16.037 5.12381 16.2536 5.16298L16.3426 4.67095ZM13.9209 14.7436C14.0234 14.4872 13.8987 14.1962 13.6423 14.0936C13.3859 13.9911 13.095 14.1158 12.9924 14.3722L13.9209 14.7436ZM12.499 16.9517L12.0348 16.7659C11.9732 16.92 11.992 17.0946 12.085 17.232C12.178 17.3694 12.3331 17.4517 12.499 17.4517V16.9517ZM14.8172 16.9517L15.2866 17.1241L15.5336 16.4517H14.8172V16.9517ZM12.9873 20.4834C12.8921 20.7426 13.025 21.0299 13.2842 21.1251C13.5434 21.2204 13.8307 21.0874 13.926 20.8282L12.9873 20.4834ZM8.56263 19.827L10.0626 22.5347L10.9374 22.0501L9.43737 19.3424L8.56263 19.827ZM7.93737 22.5347L9.43737 19.827L8.56263 19.3424L7.06263 22.0501L7.93737 22.5347ZM9 24.5C8.08223 24.5 7.4383 23.4355 7.93737 22.5347L7.06263 22.0501C6.22837 23.556 7.2511 25.5 9 25.5V24.5ZM10.0626 22.5347C10.5617 23.4355 9.91777 24.5 9 24.5V25.5C10.7489 25.5 11.7716 23.556 10.9374 22.0501L10.0626 22.5347ZM4.26478 15.1961L5.76478 17.9037L6.63952 17.4191L5.13952 14.7115L4.26478 15.1961ZM3.63952 17.9037L5.13952 15.1961L4.26478 14.7115L2.76478 17.4191L3.63952 17.9037ZM4.70215 19.869C3.78438 19.869 3.14045 18.8046 3.63952 17.9037L2.76478 17.4191C1.93052 18.925 2.95325 20.869 4.70215 20.869V19.869ZM5.76478 17.9037C6.26385 18.8046 5.61992 19.869 4.70215 19.869V20.869C6.45105 20.869 7.47378 18.925 6.63952 17.4191L5.76478 17.9037ZM4.25488 11.3527C2.6332 11.3527 1.28369 9.97658 1.28369 8.23513H0.283691C0.283691 10.4895 2.04239 12.3527 4.25488 12.3527V11.3527ZM4.86816 4.61756C4.86816 2.87612 6.21767 1.5 7.83936 1.5V0.5C5.62686 0.5 3.86816 2.36316 3.86816 4.61756H4.86816ZM18.7163 8.23513C18.7163 9.97658 17.3668 11.3527 15.7451 11.3527V12.3527C17.9576 12.3527 19.7163 10.4895 19.7163 8.23513H18.7163ZM4.25488 12.3527H15.7451V11.3527H4.25488V12.3527ZM10.9295 2.77622C11.4559 2.28763 12.1446 1.99462 12.897 1.99462V0.994623C11.8775 0.994623 10.9494 1.39336 10.2492 2.04326L10.9295 2.77622ZM7.83936 1.5C8.78881 1.5 9.6399 1.96759 10.1875 2.70723L10.9912 2.11224C10.2693 1.13704 9.12891 0.5 7.83936 0.5V1.5ZM16.2536 5.16298C17.6379 5.41325 18.7163 6.68087 18.7163 8.23513H19.7163C19.7163 6.2182 18.3121 4.51894 16.4316 4.17893L16.2536 5.16298ZM12.897 1.99462C14.398 1.99462 15.6643 3.17174 15.846 4.7289L16.8392 4.61301C16.6032 2.59055 14.9435 0.994623 12.897 0.994623V1.99462ZM1.28369 8.23513C1.28369 6.45301 2.70587 5.11756 4.36816 5.11756V4.11756C2.16549 4.11756 0.283691 5.88889 0.283691 8.23513H1.28369ZM12.9924 14.3722L12.0348 16.7659L12.9633 17.1374L13.9209 14.7436L12.9924 14.3722ZM12.499 17.4517H14.8172V16.4517H12.499V17.4517ZM14.3479 16.7793L12.9873 20.4834L13.926 20.8282L15.2866 17.1241L14.3479 16.7793Z" fill="white"/>
</svg>
